HIERARCHY
ROOT Hips
{
	OFFSET 0.000000 71.427986 0.000000
	CHANNELS 6 Xposition Yposition Zposition Xrotation Yrotation Zrotation
	JOINT Pelvis
	{
		OFFSET 0.000000 0.000000 0.000000
		CHANNELS 3 Xrotation Yrotation Zrotation
		JOINT LeftUpLeg
		{
			OFFSET 6.797100 -2.508499 -1.318700
			CHANNELS 3 Xrotation Yrotation Zrotation
			JOINT LeftLeg
			{
				OFFSET 0.069008 -29.241863 0.690200
				CHANNELS 3 Xrotation Yrotation Zrotation
				JOINT LeftFoot
				{
					OFFSET -0.069008 -29.568123 -0.266800
					CHANNELS 3 Xrotation Yrotation Zrotation
					JOINT LeftToeBase
					{
						OFFSET 3.145500 -8.631000 16.059900
						CHANNELS 3 Xrotation Yrotation Zrotation
						End Site
						{
							OFFSET 0.000000 18.501587 0.000000
						}
					}
				}
			}
			JOINT Left_ShortSleeve
			{
				OFFSET 0.265923 -10.480953 1.153800
				CHANNELS 3 Xrotation Yrotation Zrotation
				End Site
				{
					OFFSET 1.725763 19.823879 0.000000
				}
			}
		}
		JOINT RightUpLeg
		{
			OFFSET -6.797100 -2.508499 -1.318700
			CHANNELS 3 Xrotation Yrotation Zrotation
			JOINT RightLeg
			{
				OFFSET -0.082453 -29.241932 0.688000
				CHANNELS 3 Xrotation Yrotation Zrotation
				JOINT RightFoot
				{
					OFFSET 0.082453 -29.568058 -0.264600
					CHANNELS 3 Xrotation Yrotation Zrotation
					JOINT RightToeBase
					{
						OFFSET -3.115300 -8.682800 16.113400
						CHANNELS 3 Xrotation Yrotation Zrotation
						End Site
						{
							OFFSET 0.000000 18.567114 0.000000
						}
					}
				}
			}
			JOINT Right_ShortSleeve
			{
				OFFSET -0.265923 -10.480953 1.153800
				CHANNELS 3 Xrotation Yrotation Zrotation
				End Site
				{
					OFFSET -1.725766 19.823910 0.000000
				}
			}
		}
	}
	JOINT Spine
	{
		OFFSET 0.000000 13.368103 0.470500
		CHANNELS 3 Xrotation Yrotation Zrotation
		JOINT Spine1
		{
			OFFSET 0.147000 13.837402 0.538800
			CHANNELS 3 Xrotation Yrotation Zrotation
			JOINT Spine2
			{
				OFFSET 0.168000 16.242897 -1.435500
				CHANNELS 3 Xrotation Yrotation Zrotation
				JOINT Neck
				{
					OFFSET 0.217200 18.631500 -1.679100
					CHANNELS 3 Xrotation Yrotation Zrotation
					JOINT Head
					{
						OFFSET 0.000000 6.599396 1.385900
						CHANNELS 3 Xrotation Yrotation Zrotation
						JOINT Hat
						{
							OFFSET -0.532200 27.220596 -10.096100
							CHANNELS 3 Xrotation Yrotation Zrotation
							End Site
							{
								OFFSET 0.000000 22.029861 0.000000
							}
						}
						JOINT HairD
						{
							OFFSET -10.777400 17.437393 -1.325900
							CHANNELS 3 Xrotation Yrotation Zrotation
							JOINT HairD1
							{
								OFFSET -3.290299 -11.051193 1.062200
								CHANNELS 3 Xrotation Yrotation Zrotation
								End Site
								{
									OFFSET 0.000000 11.579437 0.000000
								}
							}
						}
						JOINT HairB
						{
							OFFSET -10.777400 17.437393 1.467900
							CHANNELS 3 Xrotation Yrotation Zrotation
							JOINT HairB1
							{
								OFFSET -1.561200 -12.956299 3.590200
								CHANNELS 3 Xrotation Yrotation Zrotation
								End Site
								{
									OFFSET 0.000000 13.534866 0.000000
								}
							}
						}
						JOINT HairA
						{
							OFFSET 9.713100 17.437393 1.467900
							CHANNELS 3 Xrotation Yrotation Zrotation
							JOINT HairA1
							{
								OFFSET 1.561200 -12.956299 3.590200
								CHANNELS 3 Xrotation Yrotation Zrotation
								End Site
								{
									OFFSET 0.000000 13.534866 0.000000
								}
							}
						}
						JOINT HairC
						{
							OFFSET 9.713100 17.437393 -1.325900
							CHANNELS 3 Xrotation Yrotation Zrotation
							JOINT HairC1
							{
								OFFSET 3.290300 -11.051193 1.062200
								CHANNELS 3 Xrotation Yrotation Zrotation
								End Site
								{
									OFFSET 0.000000 11.579437 0.000000
								}
							}
						}
					}
				}
				JOINT LeftShoulder
				{
					OFFSET 5.101800 15.108002 -2.763700
					CHANNELS 3 Xrotation Yrotation Zrotation
					JOINT LeftArm
					{
						OFFSET 9.825497 2.506317 -1.597400
						CHANNELS 3 Xrotation Yrotation Zrotation
						JOINT LeftForeArm
						{
							OFFSET 21.966244 0.000000 0.000000
							CHANNELS 3 Xrotation Yrotation Zrotation
							JOINT LeftHand
							{
								OFFSET 33.879036 0.000000 0.000000
								CHANNELS 3 Xrotation Yrotation Zrotation
								JOINT LeftHandThumb1
								{
									OFFSET 6.715286 -2.359680 3.363841
									CHANNELS 3 Xrotation Yrotation Zrotation
									JOINT LeftHandThumb2
									{
										OFFSET 2.507072 -1.447464 1.447461
										CHANNELS 3 Xrotation Yrotation Zrotation
										JOINT LeftHandThumb3
										{
											OFFSET 2.898338 -1.673355 1.673357
											CHANNELS 3 Xrotation Yrotation Zrotation
											End Site
											{
												OFFSET -0.295959 3.727692 -0.131651
											}
										}
									}
								}
								JOINT LeftHandIndex1
								{
									OFFSET 14.190811 -0.254547 3.840278
									CHANNELS 3 Xrotation Yrotation Zrotation
									JOINT LeftHandIndex2
									{
										OFFSET 3.551727 0.000000 -0.000000
										CHANNELS 3 Xrotation Yrotation Zrotation
										JOINT LeftHandIndex3
										{
											OFFSET 2.894196 0.000000 0.000000
											CHANNELS 3 Xrotation Yrotation Zrotation
											End Site
											{
												OFFSET -1.000603 2.690872 0.366626
											}
										}
									}
								}
								JOINT LeftHandMiddle1
								{
									OFFSET 13.776489 0.000000 0.000000
									CHANNELS 3 Xrotation Yrotation Zrotation
									JOINT LeftHandMiddle2
									{
										OFFSET 3.438232 0.000000 0.000000
										CHANNELS 3 Xrotation Yrotation Zrotation
										JOINT LeftHandMiddle3
										{
											OFFSET 3.691551 0.000000 0.000000
											CHANNELS 3 Xrotation Yrotation Zrotation
											End Site
											{
												OFFSET -1.082298 3.499527 0.457670
											}
										}
									}
								}
								JOINT LeftHandRing1
								{
									OFFSET 13.966164 -0.268127 -3.067488
									CHANNELS 3 Xrotation Yrotation Zrotation
									JOINT LeftHandRing2
									{
										OFFSET 3.162567 0.000000 0.000000
										CHANNELS 3 Xrotation Yrotation Zrotation
										JOINT LeftHandRing3
										{
											OFFSET 3.324348 0.000000 0.000000
											CHANNELS 3 Xrotation Yrotation Zrotation
											End Site
											{
												OFFSET -0.861900 3.184998 0.405154
											}
										}
									}
								}
								JOINT LeftHandPinky1
								{
									OFFSET 13.131393 -0.168503 -5.746925
									CHANNELS 3 Xrotation Yrotation Zrotation
									JOINT LeftHandPinky2
									{
										OFFSET 2.849182 0.000000 0.000000
										CHANNELS 3 Xrotation Yrotation Zrotation
										JOINT LeftHandPinky3
										{
											OFFSET 2.805038 0.000000 0.000000
											CHANNELS 3 Xrotation Yrotation Zrotation
											End Site
											{
												OFFSET -0.882500 2.642609 0.325652
											}
										}
									}
								}
							}
							JOINT Left_Sleeve
							{
								OFFSET 6.592125 -0.646545 0.805568
								CHANNELS 3 Xrotation Yrotation Zrotation
								End Site
								{
									OFFSET -0.000179 20.275787 -0.000000
								}
							}
						}
					}
				}
				JOINT RightShoulder
				{
					OFFSET -5.731700 15.108002 -2.763700
					CHANNELS 3 Xrotation Yrotation Zrotation
					JOINT RightArm
					{
						OFFSET -9.825497 2.506317 -1.597400
						CHANNELS 3 Xrotation Yrotation Zrotation
						JOINT RightForeArm
						{
							OFFSET -21.966242 0.000000 0.000000
							CHANNELS 3 Xrotation Yrotation Zrotation
							JOINT RightHand
							{
								OFFSET -33.879032 0.000000 0.000000
								CHANNELS 3 Xrotation Yrotation Zrotation
								JOINT RightHandThumb1
								{
									OFFSET -6.715286 -2.359680 3.363841
									CHANNELS 3 Xrotation Yrotation Zrotation
									JOINT RightHandThumb2
									{
										OFFSET -2.507072 -1.447464 1.447461
										CHANNELS 3 Xrotation Yrotation Zrotation
										JOINT RightHandThumb3
										{
											OFFSET -2.898338 -1.673355 1.673357
											CHANNELS 3 Xrotation Yrotation Zrotation
											End Site
											{
												OFFSET 0.295959 3.727692 -0.131651
											}
										}
									}
								}
								JOINT RightHandIndex1
								{
									OFFSET -14.190811 -0.254547 3.840278
									CHANNELS 3 Xrotation Yrotation Zrotation
									JOINT RightHandIndex2
									{
										OFFSET -3.551727 0.000000 -0.000000
										CHANNELS 3 Xrotation Yrotation Zrotation
										JOINT RightHandIndex3
										{
											OFFSET -2.894196 0.000000 0.000000
											CHANNELS 3 Xrotation Yrotation Zrotation
											End Site
											{
												OFFSET 1.000603 2.690872 0.366626
											}
										}
									}
								}
								JOINT RightHandMiddle1
								{
									OFFSET -13.776489 0.000000 0.000000
									CHANNELS 3 Xrotation Yrotation Zrotation
									JOINT RightHandMiddle2
									{
										OFFSET -3.438232 0.000000 0.000000
										CHANNELS 3 Xrotation Yrotation Zrotation
										JOINT RightHandMiddle3
										{
											OFFSET -3.691551 0.000000 0.000000
											CHANNELS 3 Xrotation Yrotation Zrotation
											End Site
											{
												OFFSET 1.082298 3.499527 0.457670
											}
										}
									}
								}
								JOINT RightHandRing1
								{
									OFFSET -13.966164 -0.268127 -3.067488
									CHANNELS 3 Xrotation Yrotation Zrotation
									JOINT RightHandRing2
									{
										OFFSET -3.162567 0.000000 0.000000
										CHANNELS 3 Xrotation Yrotation Zrotation
										JOINT RightHandRing3
										{
											OFFSET -3.324348 0.000000 0.000000
											CHANNELS 3 Xrotation Yrotation Zrotation
											End Site
											{
												OFFSET 0.861900 3.184998 0.405154
											}
										}
									}
								}
								JOINT RightHandPinky1
								{
									OFFSET -13.131393 -0.168503 -5.746925
									CHANNELS 3 Xrotation Yrotation Zrotation
									JOINT RightHandPinky2
									{
										OFFSET -2.849182 0.000000 0.000000
										CHANNELS 3 Xrotation Yrotation Zrotation
										JOINT RightHandPinky3
										{
											OFFSET -2.805038 0.000000 0.000000
											CHANNELS 3 Xrotation Yrotation Zrotation
											End Site
											{
												OFFSET 0.882500 2.642609 0.325652
											}
										}
									}
								}
							}
							JOINT Right_Sleeve
							{
								OFFSET -6.592125 -0.646545 0.805568
								CHANNELS 3 Xrotation Yrotation Zrotation
								End Site
								{
									OFFSET 0.000179 20.275787 -0.000000
								}
							}
						}
					}
				}
				JOINT Bind_Right_JacketString
				{
					OFFSET -3.534800 11.969597 7.200700
					CHANNELS 3 Xrotation Yrotation Zrotation
					JOINT Bind_Right_JacketString1
					{
						OFFSET -0.319900 -6.102600 2.794100
						CHANNELS 3 Xrotation Yrotation Zrotation
						End Site
						{
							OFFSET 0.000000 6.719452 0.000000
						}
					}
				}
				JOINT Bind_Left_JacketString
				{
					OFFSET 2.904800 11.969597 7.200700
					CHANNELS 3 Xrotation Yrotation Zrotation
					JOINT Bind_Left_JacketString1
					{
						OFFSET 0.364800 -5.904503 3.186800
						CHANNELS 3 Xrotation Yrotation Zrotation
						End Site
						{
							OFFSET 0.000000 6.719513 0.000000
						}
					}
				}
				JOINT HairE
				{
					OFFSET 5.915200 17.612701 -11.592200
					CHANNELS 3 Xrotation Yrotation Zrotation
					JOINT HairE1
					{
						OFFSET 0.289200 -7.171898 -1.284500
						CHANNELS 3 Xrotation Yrotation Zrotation
						End Site
						{
							OFFSET 0.000000 7.291756 0.000000
						}
					}
				}
				JOINT HairF
				{
					OFFSET -0.864800 17.612701 -11.592200
					CHANNELS 3 Xrotation Yrotation Zrotation
					JOINT HairF1
					{
						OFFSET 0.000000 -14.087097 -2.127501
						CHANNELS 3 Xrotation Yrotation Zrotation
						End Site
						{
							OFFSET 0.000000 14.246841 0.000000
						}
					}
				}
				JOINT HairG
				{
					OFFSET -8.087700 17.612701 -11.592200
					CHANNELS 3 Xrotation Yrotation Zrotation
					JOINT HairG1
					{
						OFFSET -0.293600 -6.081398 -0.910100
						CHANNELS 3 Xrotation Yrotation Zrotation
						End Site
						{
							OFFSET 0.000000 6.156120 0.000000
						}
					}
				}
			}
		}
	}
	JOINT Pouch
	{
		OFFSET 0.000000 4.394501 10.847300
		CHANNELS 3 Xrotation Yrotation Zrotation
		End Site
		{
			OFFSET 0.000000 21.880577 0.000000
		}
	}
	JOINT Bag
	{
		OFFSET -13.229000 4.813004 -0.593300
		CHANNELS 3 Xrotation Yrotation Zrotation
		End Site
		{
			OFFSET 0.000000 21.880577 0.000000
		}
	}
	JOINT OccupyGuyFacialAnim_Joint
	{
		OFFSET 1.000000 -70.206398 -1.655000
		CHANNELS 3 Xrotation Yrotation Zrotation
		End Site
		{
			OFFSET 0.000000 21.880577 0.000000
		}
	}
}
MOTION
Frames: 4
Frame Time: 0.033333
246.349533 71.218636 98.909813 -175.751928 47.929008 171.693593 -0.000000 0.000001 0.000000 -29.086606 0.589517 23.190355 38.564874 -25.756816 -2.144949 13.904471 0.501589 -9.623682 -0.000001 -0.000003 0.000001 -0.000000 -0.000003 -0.000001 -4.694699 -14.172006 8.810862 36.271218 5.890472 0.735958 -7.671284 3.108791 -10.505290 -0.000000 0.000000 -0.000000 -0.000000 0.000000 0.000001 3.031937 -1.017373 -3.864562 -1.797585 -0.877397 3.093650 -1.749748 -0.826134 3.119124 6.356865 -13.077117 3.448389 3.394599 -11.523792 -3.259531 0.000001 -0.000000 -0.000000 0.000001 -0.000000 -0.000000 0.000001 -0.000000 -0.000000 0.000001 -0.000000 -0.000000 -0.000000 -0.000000 0.000000 0.000001 -0.000000 -0.000000 -0.000000 -0.000000 0.000000 0.000001 -0.000000 -0.000000 0.000001 -0.000000 -0.000000 0.534088 -2.214061 -4.670225 -6.372940 -7.542733 -70.344248 11.183765 -4.057795 -0.823779 -1.688858 -0.211126 -1.023370 11.195410 -1.176888 18.255024 -6.984742 23.236923 -2.742992 0.000000 0.000001 -0.000001 1.627448 0.362640 -4.747430 -1.927286 2.069991 -13.097130 0.000002 -0.000000 -0.000002 -1.930715 4.415521 -7.832384 0.029891 4.424682 -21.943646 0.000001 -0.000000 0.000002 -4.080755 10.540295 -4.082570 3.301879 3.739227 -29.501745 0.000000 0.000000 -0.000002 -4.924368 12.326011 -12.259210 9.252896 2.822796 -31.131780 0.000002 -0.000000 0.000001 0.000000 0.000000 -0.000000 0.609725 -5.262975 9.597369 5.851928 6.926488 67.035008 14.988628 7.586743 -0.947182 0.012907 -2.656750 1.014499 13.680782 -0.950068 -19.324717 -7.899418 -22.322255 7.063277 0.000001 0.000000 0.000001 2.360941 -3.496884 10.067072 -2.165675 -2.436173 19.832136 0.000001 -0.000000 -0.000002 -1.977685 -5.671141 15.996482 0.265153 -5.068039 29.830397 0.000004 0.000001 -0.000002 -4.969684 -10.104550 13.442688 4.007253 -4.060113 36.312902 -0.000000 -0.000001 -0.000004 -6.465904 -11.323234 24.992632 10.720581 -2.602139 37.128963 -0.000001 -0.000001 -0.000001 -0.000001 0.000001 0.000001 0.000000 -0.000001 -0.000000 -0.000000 0.000002 0.000000 0.000000 -0.000001 -0.000000 0.000000 -0.000001 -0.000000 0.000000 -0.000001 -0.000000 -0.000000 0.000002 0.000000 0.000000 -0.000001 -0.000000 0.000000 -0.000001 -0.000000 0.000000 -0.000001 -0.000000 -0.000000 0.000002 0.000000 -0.000000 0.000001 0.000000 -0.000000 0.000001 0.000000 -0.000000 0.000001 0.000000 
246.397614 71.202240 98.780685 -175.582607 48.554818 171.461749 0.000000 0.000000 0.000000 -28.896488 0.831340 23.482501 38.877461 -25.545662 -2.180428 13.382665 0.529883 -9.505304 -0.000001 -0.000000 0.000001 -0.000000 0.000001 -0.000000 -4.461670 -14.094583 8.658357 36.196833 6.975723 0.841330 -7.680390 3.142497 -10.853803 -0.000000 0.000000 -0.000001 -0.000001 -0.000000 -0.000000 2.714552 -1.040459 -3.317136 -1.641278 -0.947909 2.918742 -1.595438 -0.901854 2.942618 6.659316 -12.808067 3.501247 3.364818 -11.242537 -3.361307 0.000000 0.000001 -0.000000 0.000000 0.000001 -0.000000 0.000000 0.000001 -0.000001 0.000000 0.000001 -0.000001 -0.000000 0.000001 -0.000000 0.000000 0.000001 -0.000001 -0.000000 0.000001 -0.000000 0.000000 0.000001 -0.000000 0.000000 0.000001 -0.000000 0.541067 -2.346734 -4.789546 -7.111070 -8.197146 -69.695564 11.296233 -4.040542 -0.767787 -1.714718 -0.576304 -1.047949 11.526565 0.222508 18.663256 -6.897035 23.548421 -2.844878 0.000001 -0.000001 -0.000000 1.655990 0.286620 -6.194502 -1.940827 2.094620 -14.075849 0.000000 -0.000000 -0.000004 -1.951629 4.322405 -9.081624 0.044364 4.466717 -23.161928 -0.000001 0.000001 0.000001 -4.137969 10.512497 -5.149878 3.345730 3.763994 -31.003837 -0.000004 -0.000000 0.000001 -5.033646 12.270335 -13.026306 9.360955 2.843708 -32.627455 -0.000001 -0.000001 -0.000001 -0.000001 0.000001 -0.000000 0.606730 -5.307812 9.626554 5.939564 6.895298 66.927767 14.616620 7.728236 -0.909833 0.010330 -2.652755 0.940348 13.545156 -2.146819 -20.007636 -7.862618 -22.380486 7.061791 0.000002 0.000000 -0.000000 2.358746 -3.490296 11.853222 -2.163929 -2.437294 21.556818 -0.000002 0.000001 -0.000001 -1.977224 -5.670977 17.894430 0.265268 -5.069920 31.796880 0.000001 -0.000001 0.000001 -4.968879 -10.104703 15.369976 4.007780 -4.060997 38.294770 0.000003 -0.000000 -0.000002 -6.464974 -11.322890 26.799347 10.721692 -2.600542 39.017131 0.000001 0.000002 -0.000003 -0.000001 -0.000001 0.000002 -0.000000 0.000001 0.000000 -0.000000 0.000001 0.000000 -0.000000 0.000001 0.000000 -0.000000 0.000001 0.000000 -0.000000 0.000001 0.000000 -0.000000 0.000001 0.000000 -0.000000 0.000001 0.000000 -0.000000 0.000001 0.000000 -0.000000 0.000001 0.000000 -0.000000 0.000001 0.000000 0.000000 0.000000 0.000000 0.000000 0.000000 0.000000 0.000000 0.000000 0.000000 
246.441849 71.188438 98.598465 -175.337554 49.491213 171.078480 -0.000000 -0.000001 0.000000 -28.682741 1.252395 23.941891 39.338229 -25.300945 -2.172137 12.705941 0.558561 -9.344945 0.000001 0.000000 -0.000001 -0.000001 0.000000 -0.000000 -4.127742 -13.819045 8.529147 35.993509 8.308668 0.975318 -7.685565 3.081125 -11.199089 -0.000003 -0.000000 -0.000001 -0.000000 0.000001 -0.000000 2.473175 -1.053191 -2.656044 -1.602888 -1.017888 2.765400 -1.560099 -0.975469 2.789236 7.071497 -12.385445 3.577157 3.325873 -10.798291 -3.522282 -0.000000 -0.000001 0.000000 -0.000000 -0.000001 0.000000 -0.000000 -0.000001 -0.000000 -0.000000 -0.000001 0.000000 -0.000001 -0.000001 -0.000000 -0.000000 -0.000001 0.000000 -0.000001 -0.000001 -0.000000 -0.000000 -0.000001 0.000000 -0.000000 -0.000001 0.000000 0.549315 -2.514853 -4.711531 -7.767198 -7.563580 -69.102445 12.204989 -4.127012 -0.873816 -1.749297 -0.575562 -0.522956 11.807394 1.434915 19.000459 -6.813945 23.815792 -2.942207 0.000003 -0.000001 0.000001 1.677085 0.218132 -7.444407 -1.951806 2.116260 -14.921400 0.000001 -0.000002 -0.000001 -1.973067 4.241807 -10.160612 0.058228 4.502358 -24.214607 -0.000001 -0.000000 0.000001 -4.187973 10.490237 -6.071944 3.384248 3.783455 -32.301590 0.000003 0.000002 -0.000003 -5.128984 12.224762 -13.689034 9.454375 2.859504 -33.919993 0.000000 -0.000000 0.000001 -0.000001 0.000001 -0.000003 0.604290 -5.436111 9.593464 6.167867 6.702766 66.835949 14.445225 7.898146 -0.957115 0.009824 -2.734511 0.880581 13.422675 -3.176863 -20.604819 -7.830837 -22.430775 7.060592 0.000002 -0.000002 -0.000001 2.356451 -3.485566 13.396285 -2.161655 -2.438170 23.046855 -0.000001 -0.000000 -0.000002 -1.976876 -5.670795 19.534075 0.265560 -5.072563 33.495702 -0.000000 -0.000004 -0.000001 -4.968227 -10.104771 17.034970 4.009223 -4.061689 40.007017 0.000004 -0.000003 0.000002 -6.464202 -11.322542 28.360175 10.722598 -2.599211 40.648344 -0.000002 -0.000001 0.000000 0.000001 -0.000000 -0.000000 0.000000 -0.000000 0.000000 0.000000 -0.000000 -0.000000 0.000000 -0.000000 0.000000 0.000000 -0.000000 0.000000 0.000000 -0.000000 0.000000 0.000000 -0.000000 -0.000000 0.000000 -0.000000 0.000000 0.000000 -0.000000 0.000000 0.000000 -0.000000 0.000000 0.000000 -0.000000 -0.000000 -0.000000 -0.000001 0.000000 -0.000000 -0.000001 0.000000 -0.000000 -0.000001 0.000000 
246.470169 71.181458 98.367844 -175.047913 50.743279 170.603085 -0.000000 0.000001 0.000001 -28.353696 1.703186 24.442407 39.858607 -24.930926 -2.124822 11.830943 0.612883 -9.206832 -0.000002 -0.000000 0.000001 0.000001 -0.000001 -0.000003 -3.886881 -12.957437 8.468910 35.774776 9.626589 1.117254 -7.686981 2.816275 -11.410733 -0.000001 0.000000 0.000000 0.000001 0.000001 -0.000000 2.343733 -1.075184 -1.911598 -1.599730 -1.119964 2.609300 -1.560583 -1.081780 2.634099 7.452734 -11.774548 3.653484 3.309817 -10.152563 -3.744208 -0.000000 -0.000000 -0.000000 -0.000000 -0.000000 -0.000000 -0.000000 -0.000000 -0.000000 -0.000000 -0.000000 -0.000000 -0.000001 -0.000000 0.000000 -0.000000 -0.000000 -0.000000 -0.000001 -0.000000 0.000000 -0.000000 -0.000000 -0.000000 -0.000000 -0.000000 -0.000000 0.552817 -2.611663 -4.633884 -8.169792 -6.387727 -68.452743 12.974964 -4.232928 -1.022544 -1.777234 -0.270804 -0.215499 12.025214 2.389213 19.254226 -6.738264 24.023669 -3.033758 0.000001 -0.000000 0.000001 1.691116 0.162676 -8.425613 -1.959887 2.132079 -15.585397 0.000000 0.000000 -0.000002 -1.992242 4.178013 -11.007694 0.069972 4.529770 -25.041220 -0.000000 0.000001 -0.000003 -4.227604 10.474070 -6.795908 3.414855 3.797317 -33.320624 -0.000000 0.000001 -0.000001 -5.204366 12.190647 -14.209465 9.527563 2.866298 -34.934591 0.000000 0.000001 0.000001 -0.000003 0.000000 0.000000 0.607065 -5.684728 9.591344 6.419996 6.438260 66.597022 14.504986 7.976175 -1.022028 0.006949 -2.872270 0.760329 13.322976 -3.983127 -21.078500 -7.806619 -22.470784 7.059965 0.000004 -0.000002 0.000003 2.355071 -3.482449 14.607970 -2.159310 -2.438758 24.216818 0.000001 0.000001 0.000001 -1.976572 -5.670614 20.821558 0.265810 -5.074605 34.829631 0.000004 -0.000003 -0.000006 -4.967707 -10.104793 18.342396 4.010995 -4.062303 41.351516 0.000000 0.000000 0.000003 -6.463610 -11.322233 29.585798 10.723201 -2.598181 41.929158 -0.000001 -0.000000 -0.000003 0.000006 0.000000 -0.000001 -0.000000 -0.000003 -0.000000 -0.000000 0.000000 -0.000000 -0.000000 -0.000003 -0.000000 -0.000000 -0.000003 -0.000000 -0.000000 -0.000003 -0.000000 -0.000000 0.000000 -0.000000 -0.000000 -0.000003 -0.000000 -0.000000 -0.000003 -0.000000 -0.000000 -0.000003 -0.000000 -0.000000 0.000000 -0.000000 -0.000000 0.000001 0.000001 -0.000000 0.000001 0.000001 -0.000000 0.000001 0.000001 
